
<!-- as we r not using svg directly rather .. using it by making a file ..so 've to put xmlns -->
<svg xmlns="http://www.w3.org/2000/svg" x="0px" y="0px" width="100" height="100" viewBox="0,0,256   ,256">
<g transform="translate(42.24,42.24) scale(0.5,0.5)"><g fill="#b8a9d6" fill-rule="nonzero" stroke="none" stroke-width="1" stroke-linecap="butt" stroke-linejoin="miter" stroke-miterlimit="10" stroke-dasharray="" stroke-dashoffset="0" font-family="none" font-weight="none" font-size="none" text-anchor="none" style="mix-blend-mode: normal"><path d="M128,316.23529c-103.95948,0 -188.23529,-84.27581 -188.23529,-188.23529v0c0,-103.95948 84.27581,-188.23529 188.23529,-188.23529v0c103.95948,0 188.23529,84.27581 188.23529,188.23529v0c0,103.95948 -84.27581,188.23529 -188.23529,188.23529z" id="shape"></path></g><g fill="none" fill-rule="nonzero" stroke="none" stroke-width="none" stroke-linecap="butt" stroke-linejoin="none" stroke-miterlimit="10" stroke-dasharray="" stroke-dashoffset="0" font-family="none" font-weight="none" font-size="none" text-anchor="none" style="mix-blend-mode: normal"><path transform="translate(-3.19231,-6.04869) scale(9.84615,9.84615)" d="M24,1.91016v16.36328c0,2.12109 -2.13672,4.10156 -4.76953,4.41797c-2.63281,0.32031 -4.76953,-1.01953 -4.76953,-3.14062c0,-2.12109 2.13672,-4.09766 4.76953,-4.41797c1.79297,-0.21875 2.79297,0.35938 2.79297,0.35938c0,-0.00391 0,-0.00781 0,-0.00781c0,0 0,-7.02344 0,-8.03125c0,-1.00391 -1.08594,-0.64062 -1.08594,-0.64062l-9.82422,3.07813c0,0 -1.12891,0.40625 -1.12891,1.34375c0,0.94141 0,10.00781 0,10.00781c0,2.12109 -1.92969,4.07813 -4.56641,4.44922c-2.63281,0.375 -4.76953,-0.92187 -4.76953,-3.04297c0,-2.12109 2.13672,-4.14062 4.76953,-4.51562c1.79297,-0.25391 2.59766,0.28906 2.59766,0.28906c0,-0.00391 0,-11.71875 0,-11.71875c0,-1.34766 1.08984,-2.75 2.4375,-3.13281l11.10938,-3.39844c1.34375,-0.38672 2.4375,0.39453 2.4375,1.73828z" id="strokeMainSVG" fill="#311546" stroke="#311546" stroke-width="2" stroke-linejoin="round"></path><g transform="translate(-3.19231,-6.04869) scale(9.84615,9.84615)" fill="#663987" stroke="none" stroke-width="1" stroke-linejoin="miter"><path d="M21.5625,0.17188l-11.10937,3.39844c-1.34766,0.38281 -2.4375,1.78516 -2.4375,3.13281v11.55859c0,0 0,0.15625 0,0.16016c0,0 -0.80469,-0.54297 -2.59766,-0.28906c-2.63281,0.375 -4.76953,2.39453 -4.76953,4.51563c0,2.12109 2.13672,3.41797 4.76953,3.04297c2.63672,-0.37109 4.56641,-2.32812 4.56641,-4.44922c0,0 0,-9.06641 0,-10.00781c0,-0.9375 1.12891,-1.34375 1.12891,-1.34375l9.82422,-3.07812c0,0 1.08594,-0.36328 1.08594,0.64063c0,1.00781 0,8.03125 0,8.03125c0,0 0,0.00391 0,0.00781c0,0 -1,-0.57812 -2.79297,-0.35937c-2.63281,0.32031 -4.76953,2.29687 -4.76953,4.41797c0,2.12109 2.13672,3.46094 4.76953,3.14063c2.63281,-0.31641 4.76953,-2.29687 4.76953,-4.41797v-16.36328c0,-1.34375 -1.09375,-2.125 -2.4375,-1.73828z"></path></g></g></g>
</svg>